<svg id="Layer_1" data-name="Layer 1" xmlns="http://www.w3.org/2000/svg" viewBox="0 0 502.16 502.01"><defs><style>.cls-1{fill:#fff;}</style></defs><title>logo</title><path d="M558,381.91V411.2c-.23,1.46-.57,2.92-.68,4.39A250.25,250.25,0,0,1,530.91,511c-39.92,79-122.19,132.38-209.15,136.19a272,272,0,0,1-53.84-2.58c-45.94-7.14-87-25.35-122.45-55.54C88.29,540.37,59,478,56,403.3c-1.21-29.81,3.55-59.06,13.12-87.43A250.06,250.06,0,0,1,270.83,148.05c6.88-1,13.8-1.72,20.7-2.58h27.2c1.47.23,2.93.51,4.41.68,9.11,1,18.3,1.53,27.32,3.11,40.39,7.06,77.27,22.61,109.58,47.94C514.71,240,546.58,296.17,556,365,556.74,370.63,557.3,376.28,558,381.91ZM112.4,511.69c.54-1.59.94-2.66,1.28-3.76,7.67-24.48,16-48.71,26.3-72.24a56.83,56.83,0,0,1,17.75-22.78,101.12,101.12,0,0,1,11.05-7.26,9,9,0,0,0,4.67-6.44,37.25,37.25,0,0,1,8.69-17.59c4-4.38,8.17-8.64,11.67-13.4,5.32-7.25,7.19-14.81.31-22q-4.8-5.06-9.51-10.19c-5.43-5.92-9.66-12.66-11.16-20.55a140.93,140.93,0,0,1-1.55-39.19c1.43-15.68,10.45-26.8,21.68-36.42,5.79-5,12.34-9.07,18.76-13.22A159.58,159.58,0,0,1,227.71,218c2.47-1.23,4.24-2.41,4.74-5.36.57-3.4,2.82-5.34,6.39-5.12a71,71,0,0,1,10,1.13c2.61.54,4.81.61,7.27-.8,3.93-2.26,6.93-1.09,10.11,2.23,7,7.28,10,16.25,12.11,25.8,1.65,7.55,4,14.87,10.58,19.86a26.27,26.27,0,0,1,10,15.07,12.92,12.92,0,0,0,6.18,8.07c3.73,2.35,7.45,4.75,10.93,7.45,4.24,3.27,4.3,5,2,9.88-.89,1.86-1.91,4.61-1.17,6.11,2.64,5.38,2.3,10.78,1.63,16.36a10.56,10.56,0,0,0,3.78,9.91,12.23,12.23,0,0,1,3.49,6.43c.94,4.64.86,9.48,4.31,13.34a5.49,5.49,0,0,1,.76,3.31c.09,7.44-4.56,11.42-13.28,11.92a135.86,135.86,0,0,0-13.78,1.62c-6,1-9.55,4.81-10.47,10.64-1,6.34-.9,12.66,5,17.07a119.38,119.38,0,0,0,12,8.37c3.35,1.92,7.14,4,10.83,4.22a267.34,267.34,0,0,0,28.87,0c10.84-.53,20,4.5,28.08,9.93,14.69,9.92,27.08,22.91,39.28,35.82A68.74,68.74,0,0,0,439,466.68c4.11,1.88,8.38,3.44,12.66,4.91,3.65,1.26,4.57.64,4.92-3.26a40.74,40.74,0,0,0-.07-7.65c-1.74-16.85-3.49-33.71-5.42-50.54a149.73,149.73,0,0,0-9-37.14c-1.87-4.82-4.11-9.26-9-11.94-10.73-5.88-21.46-11.69-34-12.7-5.37-.43-9-3.36-12-7.49-1.55-2.17-2.83-4.53-4.38-6.7a32.07,32.07,0,0,0-3.65-4.17c-1.84-1.78-3.7-1.83-5.9-.22-1.51,1.11-3.56,2.31-5.29,2.19-9.63-.66-17.38-5.92-17.8-17.18-.19-5.08,1.56-9.46,6.11-12.13s9.11-2.39,13.5.48a22.15,22.15,0,0,0,12.6,3.34,96,96,0,0,1,9.75.17c3.88.38,6.52-.63,8.49-4.33,2.25-4.22,5.56-4.42,9.15-1.14a12.11,12.11,0,0,1,2.06,2.35c1.37,2.16,3,2.09,4.55.46,2.74-2.79,5.45-2.48,8.36-.33a18.32,18.32,0,0,0,11,3.67,11.36,11.36,0,0,1,6.86,2.62c3.77,3.44,8.05,4.46,12.92,5.06,11.63,1.43,23.14,3.44,34.26,7.56,9.16,3.4,16,9.14,19.87,17.89s6.87,17.71,9.91,26.7c3.28,9.66,6.05,19.5,9.27,29.18.86,2.6,2.56,4.93,3.88,7.38C537,313,482.46,217.49,381.55,182.48c-97.81-33.94-209.5,1.62-266.89,93.94C61.73,361.56,77.5,458.07,112.4,511.69ZM479.55,544C457.21,537.08,435.63,531,416,519.87c-2.6-1.48-4.37-.83-5.77,1.61s-2.58,4.68-4.08,6.88c-2.91,4.26-5.79,5.09-10.47,3-2.53-1.13-4.93-2.57-7.39-3.89-5.12-2.75-13.14-1.8-17.18,2.17a3.43,3.43,0,0,0-.67,2.18c-.6,20.55-1.35,41.1-1.63,61.66-.09,6.65,1.08,13.31,1.75,20.86C414.09,601.33,450,578,479.55,544ZM466,329.47c16,53.11,31.86,105.71,47.92,159,.89-1.66,1.44-2.53,1.84-3.47a214.67,214.67,0,0,0,17-70.42c.14-2,.15-4.49-.86-6.06-7.63-11.84-11.36-25.12-14.62-38.57s-7.93-26.19-18.39-36c-2.21-2.08-4-4.44-7.49-4.45-5.34,0-10.67-.36-16-.41C472.3,329.06,469.2,329.33,466,329.47Z" transform="translate(-55.79 -145.47)"/><path class="cls-1" d="M479.55,544c-29.52,34.07-65.46,57.37-109,70.38-.67-7.55-1.84-14.21-1.75-20.86.28-20.56,1-41.11,1.63-61.66a3.43,3.43,0,0,1,.67-2.18c4-4,12.06-4.92,17.18-2.17,2.46,1.32,4.86,2.76,7.39,3.89,4.68,2.09,7.56,1.26,10.47-3,1.5-2.2,2.74-4.57,4.08-6.88s3.17-3.09,5.77-1.61C435.63,531,457.21,537.08,479.55,544Z" transform="translate(-55.79 -145.47)"/><path class="cls-1" d="M466,329.47c3.24-.14,6.34-.41,9.43-.38,5.34.05,10.67.39,16,.41,3.49,0,5.28,2.37,7.49,4.45,10.46,9.82,15.13,22.52,18.39,36s7,26.73,14.62,38.57c1,1.57,1,4.05.86,6.06a214.67,214.67,0,0,1-17,70.42c-.4.94-1,1.81-1.84,3.47C497.82,435.18,482,382.58,466,329.47Z" transform="translate(-55.79 -145.47)"/></svg>